<?xml version="1.0" encoding="UTF-8" standalone="no"?>
<!DOCTYPE svg PUBLIC "-//W3C//DTD SVG 1.1//EN" "http://www.w3.org/Graphics/SVG/1.1/DTD/svg11.dtd">
<svg width="100%" height="100%" viewBox="0 0 1080 1080" version="1.1" xmlns="http://www.w3.org/2000/svg" xmlns:xlink="http://www.w3.org/1999/xlink" xml:space="preserve" xmlns:serif="http://www.serif.com/" style="fill-rule:evenodd;clip-rule:evenodd;stroke-linejoin:round;stroke-miterlimit:2;">
    <rect id="Artboard1" x="0" y="0" width="1080" height="1080" style="fill:none;"/>
    <g id="Artboard11" serif:id="Artboard1">
        <g transform="matrix(44.5822,0,0,44.5822,493.307,527.488)">
            <path d="M0,-6.975C-2.489,-4.392 -4.015,-0.883 -4.015,2.98L-8.269,2.98L-8.269,-9.955L-8.262,-9.955C-5.122,-9.955 -2.243,-8.834 0,-6.975" style="fill:rgb(0,80,97);fill-rule:nonzero;"/>
        </g>
        <g transform="matrix(44.5822,0,0,44.5822,378.806,83.8109)">
            <path d="M0,12.932L12.932,12.932L12.932,0C5.79,0 0,5.79 0,12.932" style="fill:rgb(255,113,81);fill-rule:nonzero;"/>
        </g>
        <g transform="matrix(1.27972,0,0,1.27972,-403.869,65.2949)">
            <path d="M557.991,724.578L499.857,724.578L478.315,635.753L456.477,724.578L398.638,724.578L364.111,565.224L404.54,565.224L431.099,693.297L434.345,693.297L460.018,565.224L496.316,565.224L521.989,693.297L525.235,693.297L551.794,565.224L592.518,565.224L557.991,724.578Z" style="fill:rgb(0,80,97);fill-rule:nonzero;"/>
        </g>
        <g transform="matrix(1.27972,0,0,1.27972,-403.869,65.2949)">
            <path d="M674.261,562.273L689.311,562.273C710.952,562.273 726.592,566.404 736.232,574.667C745.872,582.93 750.692,596.701 750.692,615.981L750.692,724.578L712.919,724.578L712.624,711.298C692.754,722.119 676.425,727.529 663.637,727.529L649.177,727.529C619.864,727.529 605.207,710.708 605.207,677.067C605.601,657.393 609.437,643.327 616.716,634.867C623.995,626.408 636.39,622.178 653.899,622.178L676.031,622.178C693.147,622.178 704.951,624.539 711.443,629.261L711.443,615.686C711.443,608.604 710.607,603.193 708.935,599.455C707.263,595.718 704.656,593.111 701.115,591.635C697.574,590.16 692.459,589.422 685.77,589.422L676.031,589.422C667.375,589.422 661.178,590.799 657.44,593.553C653.702,596.308 651.44,601.324 650.653,608.604L614.946,606.833C615.339,591.094 620.405,579.733 630.143,572.749C639.882,565.765 654.587,562.273 674.261,562.273ZM691.967,645.491L670.72,645.491C661.276,645.491 654.587,647.655 650.653,651.983C646.718,656.311 644.652,663.59 644.456,673.821C644.456,691.33 652.325,700.084 668.064,700.084L679.868,700.084C687.737,700.084 698.262,696.347 711.443,688.871L711.443,649.622C708.296,646.868 701.803,645.491 691.967,645.491Z" style="fill:rgb(0,80,97);fill-rule:nonzero;"/>
        </g>
        <g transform="matrix(1.27972,0,0,1.27972,-403.869,65.2949)">
            <path d="M869.322,562.273L881.421,562.273C898.143,562.273 910.046,566.355 917.128,574.52C924.21,582.684 927.948,596.111 928.342,614.801L928.342,724.578L889.093,724.578L889.093,619.817C888.897,609.587 886.88,602.357 883.044,598.128C879.208,593.898 872.666,591.783 863.42,591.783L854.272,591.783C846.599,591.783 836.271,595.521 823.286,602.997L823.286,724.578L784.038,724.578L784.038,565.224L821.811,565.224L822.106,578.208C841.189,567.585 856.928,562.273 869.322,562.273Z" style="fill:rgb(0,80,97);fill-rule:nonzero;"/>
        </g>
        <g transform="matrix(1.27972,0,0,1.27972,-403.869,65.2949)">
            <path d="M1002.41,623.654L1022.48,623.654L1062.91,565.224L1106.58,565.224L1055.83,637.818L1111.01,724.578L1068.51,724.578L1022.77,651.688L1002.41,651.688L1002.41,724.578L963.163,724.578L963.163,503.253L1002.41,503.253L1002.41,623.654Z" style="fill:rgb(0,80,97);fill-rule:nonzero;"/>
        </g>
    </g>
</svg>
