<?xml version="1.0" encoding="UTF-8" standalone="no"?>
<!DOCTYPE svg PUBLIC "-//W3C//DTD SVG 1.1//EN" "http://www.w3.org/Graphics/SVG/1.1/DTD/svg11.dtd">
<svg width="100%" height="100%" viewBox="0 0 706 244" version="1.1" xmlns="http://www.w3.org/2000/svg" xmlns:xlink="http://www.w3.org/1999/xlink" xml:space="preserve" xmlns:serif="http://www.serif.com/" style="fill-rule:evenodd;clip-rule:evenodd;stroke-linejoin:round;stroke-miterlimit:2;">
    <g transform="matrix(0.881785,0,0,0.303798,0,0)">
        <rect id="Artboard1" x="0" y="0" width="800" height="800" style="fill:none;"/>
        <g id="Artboard11" serif:id="Artboard1">
            <g transform="matrix(1.13406,0,0,3.29167,-53.6065,-916.661)">
                <path d="M551.3,306.2C535.805,300.554 519.425,297.72 502.933,297.833C449.6,297.833 411.933,324.7 411.667,363.267C411.333,391.6 438.433,407.567 458.933,417.033C479.967,426.767 487,432.9 486.933,441.6C486.8,454.833 470.133,460.833 454.633,460.833C433.333,460.833 421.7,457.867 403.8,450.433L397.167,447.333L389.6,491.733C402.567,497.133 425.933,501.767 450.067,502.167C506.767,502.167 543.833,475.467 544.267,434.433C544.733,411.8 530.067,394.7 499.2,380.567C480.433,371.4 468.8,365.267 468.8,355.967C468.8,347.733 478.767,338.933 499.6,338.933C513.465,338.598 527.245,341.199 540.033,346.567L545.033,348.8L552.6,305.9L551.3,306.2ZM689.7,301.433L648.033,301.433C635.067,301.433 625.3,305 619.633,317.867L539.5,499.4L596.2,499.4L607.533,469.633L676.733,469.7C678.367,476.667 683.367,499.4 683.367,499.4L733.367,499.4L689.7,301.433ZM334.967,299.767L389,299.767L355.2,497.833L301.233,497.833L334.967,299.7L334.967,299.767ZM197.8,408.933L203.4,436.433L256.2,301.433L313.433,301.433L228.4,499.133L171.3,499.133L124.633,331.733C123.878,328.974 122.102,326.602 119.667,325.1C102.847,316.411 85.025,309.818 66.6,305.467L67.333,301.3L154.3,301.3C166.1,301.767 175.6,305.467 178.767,318.067L197.767,409.033L197.767,408.933L197.8,408.933ZM623.033,429.133L644.567,373.733C644.3,374.333 649,362.3 651.733,354.867L655.433,371.967L667.933,429.1L623,429.1L623,429.133L623.033,429.133Z" style="fill:rgb(26,31,113);fill-rule:nonzero;"/>
            </g>
        </g>
    </g>
</svg>
